<svg preserveAspectRatio="none" width="100%" height="100%" overflow="visible" style="display: block;" viewBox="0 0 29.2239 26.8179" fill="none" xmlns="http://www.w3.org/2000/svg">
<g id="Logo/icon/colour primary">
<path id="Shape" d="M27.2843 9.97204L21.1211 15.3837H5.8566C4.4328 15.3818 3.0575 15.8885 1.99001 16.8081L9.68881 10.0465L9.80693 9.94431L19.4525 1.46631C21.0078 0.100722 23.1913 -0.351235 25.1805 0.280685C27.1697 0.912604 28.6625 2.5324 29.0964 4.5299C29.5304 6.52741 28.8396 8.59915 27.2843 9.96474V9.97204Z" fill="var(--fill-0, #F15B41)"/>
<path id="Oval" d="M5.85671 11.4407C9.09128 11.4407 11.7134 8.88129 11.7134 5.72404C11.7134 2.56679 9.09128 0.00733578 5.85671 0.00733578C2.62214 0.00733578 0 2.56679 0 5.72404C0 8.88129 2.62214 11.4407 5.85671 11.4407Z" fill="var(--fill-0, #F99D1D)"/>
<path id="Shape_2" d="M5.85671 15.3837C4.43291 15.3818 3.0576 15.8885 1.99012 16.8081L1.94078 16.8519C-0.463887 18.9629 -0.660028 22.577 1.50268 24.9242C3.66539 27.2714 7.36798 27.4628 9.77265 25.3518L21.1227 15.3852L5.85671 15.3837Z" fill="var(--fill-0, #272560)"/>
<path id="Shape_3" d="M21.1132 15.3881L9.76197 25.3547C8.68713 26.2982 7.29162 26.8183 5.84614 26.8143L23.359 26.8142C26.737 26.7615 29.122 24.2809 29.122 21.0982C29.122 17.9156 26.5566 15.4321 23.359 15.3823L21.1132 15.3881Z" fill="var(--fill-0, #00B6BD)"/>
</g>
</svg>
