<svg preserveAspectRatio="none" width="100%" height="100%" overflow="visible" style="display: block;" viewBox="0 0 40.683 26.8732" fill="none" xmlns="http://www.w3.org/2000/svg">
<g id="Logo/item/zip/text/primary">
<path id="Shape" d="M1.7829 22.0101C1.29531 22.0277 0.823605 21.8399 0.488443 21.4949C0.160334 21.1466 -0.0146402 20.6872 0.000960385 20.215C-0.00361328 19.7393 0.117231 19.2705 0.351948 18.8533C0.558154 18.4802 0.809973 18.1328 1.10192 17.8185L8.34816 9.84697H2.03189C1.41991 9.84697 0.981925 9.64265 0.741934 9.23692C0.508265 8.82934 0.391689 8.36806 0.404446 7.90151C0.387572 7.45188 0.5207 7.009 0.783932 6.63908C1.04484 6.289 1.46945 6.09038 1.91339 6.11075H13.073C13.5448 6.0896 14.005 6.25731 14.3464 6.57486C14.6629 6.88281 14.8234 7.32065 14.8234 7.87524C14.8368 8.30711 14.7442 8.73586 14.5534 9.126C14.3703 9.46591 14.1408 9.78012 13.871 10.0601L6.32473 18.2724H13.475C13.9051 18.262 14.3146 18.4517 14.5774 18.7832C14.8575 19.1539 14.9988 19.6065 14.9779 20.0661C14.9983 20.5449 14.8804 21.0197 14.6374 21.4365C14.3929 21.8175 13.9595 22.0116 13.3505 22.0116L1.7829 22.0101Z" fill="var(--fill-0, #272560)"/>
<path id="Shape_2" d="M19.3128 22.2203C17.3269 22.2203 16.9129 21.2278 16.9129 20.3959V8.25324C16.9129 7.61838 17.1094 7.10465 17.4994 6.72665C17.8893 6.34865 18.5103 6.156 19.3473 6.156C20.0523 6.156 20.6102 6.31216 21.0077 6.62157C21.4052 6.93097 21.6257 7.43011 21.6257 8.07227V20.3317C21.6257 20.9987 21.4097 21.4891 20.9837 21.7912C20.5577 22.0933 20.0103 22.2203 19.3128 22.2203ZM19.3128 4.8527C18.5388 4.8527 17.9043 4.63232 17.4244 4.19741C16.9444 3.76249 16.6939 3.16265 16.6939 2.42562C16.6754 1.77222 16.9393 1.14121 17.4214 0.685946C17.8968 0.232054 18.5343 0 19.3128 0C19.9547 0.00136215 20.5787 0.20631 21.0902 0.583784C21.6482 0.983676 21.9317 1.60541 21.9317 2.43146C21.9317 3.16849 21.6857 3.76541 21.2012 4.2047C20.7167 4.644 20.0823 4.85708 19.3128 4.85708V4.8527Z" fill="var(--fill-0, #272560)"/>
<path id="Shape_3" d="M26.8035 26.8732C24.9466 26.8732 24.5536 25.8648 24.5536 25.0183V7.84169C24.5376 7.3037 24.7503 6.78308 25.1416 6.40265C25.5301 6.02465 26.1525 5.832 26.9895 5.832C27.5101 5.82685 28.0244 5.94295 28.4895 6.17059C28.9829 6.41725 29.2394 6.90033 29.2394 7.59358C29.3394 7.48169 29.4469 7.36688 29.5619 7.24915C29.8771 6.93778 30.2297 6.66436 30.6119 6.43476C31.5409 5.87055 32.6173 5.5787 33.7123 5.5941C34.7616 5.57427 35.8011 5.79316 36.7482 6.23335C37.6148 6.64962 38.3694 7.25739 38.9516 8.00807C39.5583 8.811 40.0013 9.71961 40.2565 10.6848C40.5485 11.7753 40.6918 12.8985 40.6825 14.0255C40.6932 15.1734 40.5284 16.3165 40.1935 17.4173C39.8976 18.3951 39.4119 19.3087 38.7626 20.1086C38.137 20.8623 37.3442 21.4685 36.4437 21.8818C35.4638 22.319 34.3956 22.537 33.3178 22.5196C32.596 22.5398 31.8759 22.4411 31.1879 22.2277C30.6938 22.0647 30.2241 21.8385 29.7914 21.5549C29.5569 21.4 29.3406 21.2203 29.1464 21.0193V24.9307C29.1464 25.6108 28.9559 26.1129 28.5794 26.4223C28.203 26.7317 27.624 26.8732 26.8035 26.8732ZM32.5123 9.48506C32.0012 9.47303 31.4955 9.58913 31.0439 9.8222C30.6188 10.0567 30.2546 10.3827 29.9789 10.7752C29.6692 11.2194 29.4432 11.7136 29.3114 12.2347C29.1562 12.8403 29.0801 13.4626 29.0849 14.0868C29.0849 15.5083 29.3849 16.6482 29.9849 17.4757C30.5849 18.3032 31.3993 18.69 32.5183 18.69C33.6373 18.69 34.4517 18.2755 35.0172 17.4217C35.5827 16.5679 35.8842 15.431 35.8842 14.0868C35.8861 13.4643 35.8074 12.844 35.6502 12.2406C35.5184 11.7216 35.2973 11.2282 34.9962 10.7811C34.7284 10.388 34.3686 10.0624 33.9463 9.83096C33.5068 9.59767 33.0129 9.47854 32.5123 9.48506Z" fill="var(--fill-0, #272560)"/>
</g>
</svg>
